:FULLY-SPECIFIED
:FORCE-ALL-JOINTS-BE-3DOF
:DEGREES
951
root 1.28341 15.3272 32.6993 5.72108 -3.93831 4.95896
lfemur 7.32904 1.2588 3.60025
ltibia 1.45081 -0 0
lfoot -28.926 -18.2815 -0.0643763
ltoes -28.8447 0 0
rfemur -31.3795 -12.8554 -8.0312
rtibia 49.3006 -0 0
rfoot -17.6781 2.64726 -0.323212
rtoes -42.9303 0 0
lowerback -2.26094 -0.75631 -0.360431
upperback -1.21464 -0.99502 -6.93526
thorax -0.103403 -0.528855 -7.04081
lowerneck -6.49354 0.798274 4.45236
upperneck 1.40186 0.578975 4.04327
head 1.55166 0.400887 0.533289
lclavicle -6.16232e-015 -1.11319e-014 0
lhumerus -58.0587 -43.4752 111.902
lradius 55.7248 -0 0
lwrist 24.2947 0 0
lhand 40.3608 25.1429 0.0393765
lfingers 7.12502 -0 0
lthumb 62.6801 35.6588 0.0125323
rclavicle -6.16232e-015 -1.11319e-014 0
rhumerus -0.907722 1.99523 -4.89742
rradius 51.4299 -0 0
rwrist -12.7605 0 0
rhand -12.8836 -35.19 3.9812
rfingers 7.12502 -0 0
rthumb 12.9763 -62.6142 4.5659
952
root 1.25919 15.3121 32.6947 5.75915 -4.0819 4.8996
lfemur 7.47507 1.40206 3.73846
ltibia 1.31892 -0 0
lfoot -28.9901 -17.7586 -0.0614458
ltoes -29.2379 0 0
rfemur -31.6147 -13.1817 -7.84817
rtibia 49.502 -0 0
rfoot -18.1688 2.99072 -0.308493
rtoes -42.7937 0 0
lowerback -2.198 -0.751311 -0.273286
upperback -1.20594 -0.992621 -6.87333
thorax -0.129733 -0.528063 -7.02327
lowerneck -6.45218 0.844022 4.57362
upperneck 1.31237 0.638101 4.00788
head 1.51506 0.427453 0.503037
lclavicle -6.16232e-015 -1.11319e-014 0
lhumerus -58.1335 -43.5604 112.112
lradius 55.6533 -0 0
lwrist 24.2393 0 0
lhand 40.2554 24.9482 0.0375862
lfingers 7.12502 -0 0
lthumb 62.5938 35.5832 0.0119626
rclavicle -6.16232e-015 -1.11319e-014 0
rhumerus -0.246334 -0.537178 -4.23815
rradius 49.3399 -0 0
rwrist -12.6927 0 0
rhand -14.6547 -36.3782 3.79574
rfingers 7.12502 -0 0
rthumb 11.274 -64.0343 4.35278
953
root 1.23497 15.297 32.69 5.79738 -4.22544 4.84013
lfemur 7.62146 1.54496 3.87705
ltibia 1.18703 -0 0
lfoot -29.0543 -17.2357 -0.0579297
ltoes -29.631 0 0
rfemur -31.8513 -13.5072 -7.66351
rtibia 49.7033 -0 0
rfoot -18.6594 3.33404 -0.290833
rtoes -42.6571 0 0
lowerback -2.13504 -0.746408 -0.186137
upperback -1.19724 -0.990232 -6.8114
thorax -0.156064 -0.527263 -7.00574
lowerneck -6.41073 0.889682 4.69491
upperneck 1.22284 0.697172 3.9724
head 1.47845 0.454 0.472769
lclavicle -6.16232e-015 -1.11319e-014 0
lhumerus -58.2088 -43.6454 112.322
lradius 55.5818 -0 0
lwrist 24.1839 0 0
lhand 40.15 24.7535 0.0354379
lfingers 7.12502 -0 0
lthumb 62.5075 35.5076 0.0112789
rclavicle -6.16232e-015 -1.11319e-014 0
rhumerus 0.386766 -3.07687 -3.60726
rradius 47.2498 -0 0
rwrist -12.6249 0 0
rhand -16.4211 -37.5598 3.57379
rfingers 7.12502 -0 0
rthumb 9.57798 -65.447 4.09778
954
root 1.21075 15.2819 32.6854 5.83576 -4.36895 4.78055
lfemur 7.7682 1.68751 4.01601
ltibia 1.05514 -0 0
lfoot -29.1184 -16.7128 -0.0538283
ltoes -30.0242 0 0
rfemur -32.0893 -13.8319 -7.47721
rtibia 49.9047 -0 0
rfoot -19.1498 3.67719 -0.270234
rtoes -42.5205 0 0
lowerback -2.07208 -0.741601 -0.0989818
upperback -1.18853 -0.987852 -6.74947
thorax -0.182394 -0.526454 -6.98821
lowerneck -6.36918 0.935254 4.81624
upperneck 1.13328 0.756187 3.93683
head 1.44183 0.480527 0.442484
lclavicle -6.16232e-015 -1.11319e-014 0
lhumerus -58.2847 -43.7302 112.533
lradius 55.5103 -0 0
lwrist 24.1285 0 0
lhand 40.0447 24.5589 0.0329316
lfingers 7.12502 -0 0
lthumb 62.4212 35.4319 0.0104814
rclavicle -6.16232e-015 -1.11319e-014 0
rhumerus 0.993879 -5.62324 -3.00246
rradius 45.1597 -0 0
rwrist -12.5571 0 0
rhand -18.1822 -38.7337 3.31564
rfingers 7.12502 -0 0
rthumb 7.88935 -66.851 3.80127
955
root 1.18653 15.2668 32.6807 5.8743 -4.51242 4.72087
lfemur 7.9153 1.8297 4.15535
ltibia 0.923246 -0 0
lfoot -29.1825 -16.1899 -0.0491421
ltoes -30.4173 0 0
rfemur -32.3288 -14.1559 -7.28926
rtibia 50.106 -0 0
rfoot -19.6401 4.02015 -0.2467
rtoes -42.3839 0 0
lowerback -2.00912 -0.736889 -0.0118218
upperback -1.17983 -0.985481 -6.68754
thorax -0.208723 -0.525638 -6.97068
lowerneck -6.32754 0.980738 4.9376
upperneck 1.04368 0.815146 3.90116
head 1.40519 0.507035 0.412181
lclavicle -6.16232e-015 -1.11319e-014 0
lhumerus -58.3611 -43.8148 112.744
lradius 55.4388 -0 0
lwrist 24.0731 0 0
lhand 39.9393 24.3642 0.0300674
lfingers 7.12502 -0 0
lthumb 62.3349 35.3563 0.00956992
rclavicle -6.16232e-015 -1.11319e-014 0
rhumerus 1.57709 -8.17573 -2.42168
rradius 43.0697 -0 0
rwrist -12.4893 0 0
rhand -19.9371 -39.8988 3.02167
rfingers 7.12502 -0 0
rthumb 6.20909 -68.2452 3.46372
956
root 1.16231 15.2516 32.676 5.913 -4.65584 4.66108
lfemur 8.06276 1.97154 4.29506
ltibia 0.791354 -0 0
lfoot -29.2465 -15.667 -0.0438713
ltoes -30.8105 0 0
rfemur -32.5696 -14.4791 -7.09964
rtibia 50.3074 -0 0
rfoot -20.1303 4.3629 -0.220231
rtoes -42.2473 0 0
lowerback -1.94614 -0.732273 0.0753433
upperback -1.17112 -0.983119 -6.62561
thorax -0.235053 -0.524813 -6.95314
lowerneck -6.28579 1.02613 5.059
upperneck 0.954034 0.87405 3.8654
head 1.36854 0.533524 0.381862
lclavicle -6.16232e-015 -1.11319e-014 0
lhumerus -58.438 -43.8991 112.956
lradius 55.3673 -0 0
lwrist 24.0177 0 0
lhand 39.834 24.1695 0.0268453
lfingers 7.12502 -0 0
lthumb 62.2485 35.2807 0.00854452
rclavicle -6.16232e-015 -1.11319e-014 0
rhumerus 2.1383 -10.7339 -1.86303
rradius 40.9796 -0 0
rwrist -12.4215 0 0
rhand -21.6852 -41.054 2.69227
rfingers 7.12502 -0 0
rthumb 4.53816 -69.6284 3.08562
957
root 1.13809 15.2365 32.6714 5.95186 -4.79923 4.60118
lfemur 8.21057 2.11301 4.43515
ltibia 0.659461 -0 0
lfoot -29.3105 -15.1442 -0.0380164
ltoes -31.2036 0 0
rfemur -32.812 -14.8015 -6.90834
rtibia 50.5088 -0 0
rfoot -20.6203 4.70541 -0.190832
rtoes -42.1107 0 0
lowerback -1.88316 -0.727753 0.162513
upperback -1.1624 -0.980767 -6.56368
thorax -0.261382 -0.523981 -6.93561
lowerneck -6.24395 1.07144 5.18043
upperneck 0.864354 0.932898 3.82954
head 1.33187 0.559993 0.351525
lclavicle -6.16232e-015 -1.11319e-014 0
lhumerus -58.5155 -43.9833 113.168
lradius 55.2959 -0 0
lwrist 23.9622 0 0
lhand 39.7287 23.9749 0.0232653
lfingers 7.12502 -0 0
lthumb 62.1622 35.2051 0.0074052
rclavicle -6.16232e-015 -1.11319e-014 0
rhumerus 2.67922 -13.2972 -1.32481
rradius 38.8895 -0 0
rwrist -12.3538 0 0
rhand -23.4258 -42.1984 2.32791
rfingers 7.12502 -0 0
rthumb 2.87743 -70.9994 2.66754
